<svg width="31" height="34" viewBox="0 0 31 34" fill="none" xmlns="http://www.w3.org/2000/svg">
<path fill-rule="evenodd" clip-rule="evenodd" d="M12.4669 1.11842C13.9838 -0.372807 16.4161 -0.372809 17.933 1.11842L29.2265 12.2206C31.6328 14.5861 30.0925 18.6221 26.8329 18.8858V28.363C26.8329 30.9329 24.7496 33.0162 22.1797 33.0162H8.22016C5.65028 33.0162 3.56699 30.9329 3.56699 28.363V18.8858C0.307398 18.6221 -1.23292 14.5861 1.17336 12.2206L12.4669 1.11842ZM10 23C9.44771 23 9 23.4477 9 24C9 24.5523 9.44771 25 10 25H16C16.5523 25 17 24.5523 17 24C17 23.4477 16.5523 23 16 23H10ZM9 21C9 20.4477 9.44772 20 10 20H21C21.5523 20 22 20.4477 22 21C22 21.5523 21.5523 22 21 22H10C9.44771 22 9 21.5523 9 21ZM10 17C9.44772 17 9 17.4477 9 18C9 18.5523 9.44771 19 10 19H21C21.5523 19 22 18.5523 22 18C22 17.4477 21.5523 17 21 17H10Z" fill="#0168FE"/>
</svg>
