<svg width="20" height="30" viewBox="0 0 20 30" fill="none" xmlns="http://www.w3.org/2000/svg">
<path fill-rule="evenodd" clip-rule="evenodd" d="M15.7143 18.9224C18.305 17.1154 20 14.1131 20 10.7148C20 5.192 15.5228 0.714844 10 0.714844C4.47715 0.714844 0 5.192 0 10.7148C0 14.1131 1.69502 17.1154 4.28571 18.9224V22.1433C4.28571 23.2704 4.9383 24.245 5.88622 24.71C5.77431 25.0287 5.71429 25.3659 5.71429 25.7148C5.71429 27.6872 7.63307 29.2862 10 29.2862C12.3669 29.2862 14.2857 27.6872 14.2857 25.7148C14.2857 25.3659 14.2257 25.0287 14.1138 24.71C15.0617 24.245 15.7143 23.2704 15.7143 22.1433V18.9224ZM6.27194 9.5181C6.8177 9.0871 7.52745 9.23405 7.85722 9.84631L9.60534 13.092C9.72949 13.0476 9.86324 13.0234 10.0026 13.0234C10.1544 13.0234 10.2995 13.0521 10.4328 13.1043L12.1876 9.84631C12.5174 9.23405 13.2271 9.0871 13.7729 9.5181C14.3186 9.9491 14.4937 10.7948 14.164 11.4071L11.3968 16.5447C11.3368 16.6561 11.2643 16.7521 11.1824 16.832V23.2722C11.1824 23.9238 10.6542 24.452 10.0026 24.452C9.35107 24.452 8.82287 23.9238 8.82287 23.2722L8.82287 16.7914C8.75706 16.7202 8.69813 16.6378 8.64798 16.5447L5.88084 11.4071C5.55107 10.7948 5.72617 9.9491 6.27194 9.5181Z" fill="#D9D9D9"/>
</svg>
