<svg width="27" height="28" viewBox="0 0 27 28" fill="none" xmlns="http://www.w3.org/2000/svg">
<rect y="9" width="27" height="19" rx="5" fill="#D9D9D9"/>
<path fill-rule="evenodd" clip-rule="evenodd" d="M14 18C18.9706 18 23 13.9706 23 9C23 4.02944 18.9706 0 14 0C9.02944 0 5 4.02944 5 9C5 13.9706 9.02944 18 14 18ZM13.9999 13.846C16.6763 13.846 18.846 11.6763 18.846 8.99986C18.846 6.32341 16.6763 4.15371 13.9999 4.15371C11.3234 4.15371 9.15371 6.32341 9.15371 8.99986C9.15371 11.6763 11.3234 13.846 13.9999 13.846Z" fill="#D9D9D9"/>
<circle cx="7.25" cy="18.5" r="2.25" fill="white"/>
<circle cx="14" cy="18.5" r="2.25" fill="white"/>
<circle cx="20.75" cy="18.5" r="2.25" fill="white"/>
</svg>
